/* XPM */
static const char *rme_icon[] = {
/* columns rows colors chars-per-pixel */
"48 48 254 2 ",
"   c #16192C",
".  c #181C35",
"X  c #0F142D",
"o  c #1D2333",
"O  c #1E263B",
"+  c #262B39",
"@  c #2D2D36",
"#  c #0E1023",
"$  c #211623",
"%  c #5B3015",
"&  c #593422",
"*  c #755C30",
"=  c #181E47",
"-  c #181F52",
";  c #152758",
":  c #1B3659",
">  c #2C3341",
",  c #383C45",
"<  c #2A3150",
"1  c #0E3771",
"2  c #172866",
"3  c #403945",
"4  c #3D414C",
"5  c #174B74",
"6  c #2A4C6A",
"7  c #1D7178",
"8  c #2C6C6F",
"9  c #276597",
"0  c #484C52",
"q  c #514D51",
"w  c #625652",
"e  c #556A70",
"r  c #646567",
"t  c #6E746E",
"y  c #696554",
"u  c #211E3B",
"i  c #C25200",
"p  c #AC4C04",
"a  c #11549C",
"s  c #14579F",
"d  c #1170AE",
"f  c #1093C1",
"g  c #138EBE",
"h  c #823F20",
"j  c #E43D15",
"k  c #994E14",
"l  c #BA5407",
"z  c #AC7523",
"x  c #C95800",
"c  c #C85700",
"v  c #896230",
"b  c #C95900",
"n  c #D15806",
"m  c #EB4E17",
"M  c #DA6A02",
"N  c #DA7506",
"B  c #D66D05",
"V  c #EA7800",
"C  c #E97204",
"Z  c #F75926",
"A  c #FD6D35",
"S  c #E78501",
"D  c #867771",
"F  c #996943",
"G  c #E27941",
"H  c #CB5B00",
"J  c #E68D0D",
"K  c #739500",
"L  c #59A300",
"P  c #72B601",
"I  c #549800",
"U  c #7FC302",
"Y  c #38A45E",
"T  c #339C67",
"R  c #288874",
"E  c #2A926F",
"W  c #3CA66A",
"Q  c #4CB35C",
"!  c #56B95C",
"~  c #45AE5D",
"^  c #4AB46D",
"/  c #6A9577",
"(  c #77CC5B",
")  c #6AC45B",
"_  c #75CD6E",
"`  c #B09602",
"'  c #8DB806",
"]  c #D8960C",
"[  c #EA8604",
"{  c #F68B01",
"}  c #F99702",
"|  c #ED9313",
" . c #D8B40D",
".. c #FDA402",
"X. c #FFAB02",
"o. c #F8A709",
"O. c #FFB60A",
"+. c #FEBC13",
"@. c #FCB718",
"#. c #F2AF13",
"$. c #D59930",
"%. c #CDAC36",
"&. c #F6B728",
"*. c #F2B72B",
"=. c #FC9D31",
"-. c #93CB0B",
";. c #AECE17",
":. c #B9E438",
">. c #FEC41B",
",. c #FFC91E",
"<. c #FEC217",
"1. c #E9C317",
"2. c #FFCD23",
"3. c #FCC92B",
"4. c #FFD22B",
"5. c #FFD027",
"6. c #FCCD37",
"7. c #FFD732",
"8. c #FFDA34",
"9. c #FFDC3B",
"0. c #FDD53D",
"q. c #F2CE3F",
"w. c #CAC515",
"e. c #B9B756",
"r. c #858F73",
"t. c #AFBE6F",
"y. c #9E9361",
"u. c #D48F57",
"i. c #D6BD45",
"p. c #C99572",
"a. c #F1AF6B",
"s. c #F0A656",
"d. c #86D35E",
"f. c #97DA67",
"g. c #88D567",
"h. c #B2CD6D",
"j. c #A8E175",
"k. c #FCDD44",
"l. c #F1D04D",
"z. c #FFE246",
"x. c #D6D060",
"c. c #E2C246",
"v. c #0A3F82",
"b. c #0B4786",
"n. c #135987",
"m. c #0C5799",
"M. c #165698",
"N. c #185195",
"B. c #0C659B",
"V. c #157190",
"C. c #2B7890",
"Z. c #125EA2",
"A. c #0B67A5",
"S. c #1866A8",
"D. c #0C75AB",
"F. c #0A78B3",
"G. c #167AB0",
"H. c #2170A4",
"J. c #1565A5",
"K. c #177AAD",
"L. c #407487",
"P. c #067ECA",
"I. c #18A1C8",
"U. c #947C81",
"Y. c #1B8C96",
"T. c #23999A",
"R. c #29908E",
"E. c #34AA8E",
"W. c #1997A7",
"Q. c #0C8DBC",
"!. c #0D85B6",
"~. c #1687B8",
"^. c #1391B8",
"/. c #1EA2AE",
"(. c #30B8BD",
"). c #279ABA",
"_. c #5DA791",
"`. c #6BD190",
"'. c #4CCDB4",
"]. c #67D6AB",
"[. c #0E99C4",
"{. c #0E96C3",
"}. c #139BC5",
"|. c #148DD1",
" X c #0FA2CB",
".X c #12A5CB",
"XX c #15A7CB",
"oX c #13ACD1",
"OX c #15B3D5",
"+X c #1BBCDA",
"@X c #1AB6D3",
"#X c #2AB7CF",
"$X c #1DA3EA",
"%X c #45BFE1",
"&X c #26C2DC",
"*X c #35C3D3",
"=X c #32CCE3",
"-X c #4ECEC8",
";X c #50D2E6",
":X c #6BD8E5",
">X c #76E6EA",
",X c #6DD2D8",
"<X c #93918F",
"1X c #AC9997",
"2X c #AF9491",
"3X c #ACA29A",
"4X c #B5ACA8",
"5X c #D0B099",
"6X c #C9B8AD",
"7X c #C19986",
"8X c #B8E78A",
"9X c #AEE78C",
"0X c #98E4A5",
"qX c #C3EC9B",
"wX c #D0C1B7",
"eX c #C8EEA5",
"rX c #D1F2B4",
"tX c #EBC7A3",
"yX c #A9ECCD",
"uX c #90EAEC",
"iX c #AFF1E8",
"pX c #92E5D1",
"aX c #DDD1C5",
"sX c #D5CDC3",
"dX c #E6DACA",
"fX c #E6DED2",
"gX c #D2F5CD",
"hX c #EEE3D2",
"jX c #F6EBDA",
"kX c #EAFAD7",
"lX c #EEF6D4",
"zX c #E8FBE3",
"xX c #FDF4E2",
"cX c #D5F8E7",
"vX c #16357A",
"bX c #1A1427",
"nX c #B84A00",
"mX c #0F4893",
"MX c #0C6EAC",
"NX c #0D0E22",
"BX c #E08512",
"VX c #CA5D00",
"CX c #0E7DB3",
"ZX c #134491",
"AX c #0C95C2",
"SX c #394362",
"DX c #D36D07",
"FX c #097AB1",
"GX c #0C589C",
"HX c #3A5367",
"JX c None",
"KX c #474244",
"LX c #B14300",
"PX c #769469",
/* pixels */
"JXJXJXJXJXJXJXJXJXJXJXJXJXJXJXJXJXJXJXJXJXJXJXJXJXJXJXJXJXJXJXJXJXJXJXJXJXJXJXJXJXJXJXJXJXJXJXJX",
"JXJXJXJXJXJXJXJXJXJXJXJXJXJXJXJXJXJXJXJXJXJXJXJXJXJXJXJXJXJXJXJXJXJXJXJXJXJXJXJXJXJXJXJXJXJXJXJX",
"JXJXJXJXJXJXJXJXJXJXJXJXJXJXJXJXJXJXJXJXJXJXJXJXJXJXJXJXJXJXJXJXJXJXJXJXJXJXJXJXJXJXJXJXJXJXJXJX",
"JXJXJXJXJXJXJXJXJXJXJXJXJXJXJXJXKXbXZXg I.I.I.I.g vXbXSXKXJXJXJXJXJXJXJXJXJXJXJXJXJXJXJXJXJXJXJX",
"JXJXJXJXJXJXJXJXJXJXJXJXJXJXGXg Y.(.,XuXuX>X:X;X*X@XXX).d NXHXJXJXJXJXJXJXJXJXJXJXJXJXJXJXJXJXJX",
"JXJXJXJXJXJXJXJXJXJXJXJXSXa #X:XiXcXzXzXcXuX:X;X*X#X@XXX}.~.J.NXKXJXJXJXJXJXJXJXJXJXJXJXJXJXJXJX",
"JXJXJXJXJXJXJXJXJXJXKXvX).:XiXzXzXiXiXzXkXgX:X=X*X@XoXXX}.{.~.G.d SXJXJXJXJXJXJXJXJXJXJXJXJXJXJX",
"JXJXJXJXJXJXJXJXJXKXa -XyXkXkXkXkXkXuXiXkXgX;X-X`.#XoX.X/.W.~.~.G.J.bXJXJXJXJXJXJXJXJXJXJXJXJXJX",
"JXJXJXJXJXJXJXJXKXI.-XyXgXkXkXlXkXgXuX>XyXpX=X'.'.@XoX XW.^ ^ R.Y.R.J.bXJXJXJXJXJXJXJXJXJXJXJXJX",
"JXJXJXJXJXJXJXKXg #X0XrXgXlXlXgXiX>X>X:X;X;X=X&X+XOXXXE.E.W.^ Q ~ W R.J.GXJXJXJXJXJXJXJXJXJXJXJX",
"JXJXJXJXJXJXJXZXXX`.9XeXrXrXrXgX>XpXeX0X=X=X&X+X@XoX.XE.! W.T.Q ~ T R Y.s HXJXJXJXJXJXJXJXJXJXJX",
"JXJXJXJXJXJXGXY.#X_ j.8XqXeXeXeXeXeXqX9X-X&X+X+XOXoX.X/.T.T.W Q Y T E R.H.a JXJXJXJXJXJXJXJXJXJX",
"JXJXJXJXJXJXg XXE.d.f.j.8X8X8X8X8X8X9X].'.+X+XOXoX.X X{.^.E.Q ~ Y T E R C.N.SXJXJXJXJXJXJXJXJXJX",
"JXJXJXJXJXGX^./.^ ( d.f.j.j.j.j.j.g.'.&X+X+XOXOXXX.X}.Q.E.Q ~ W Y T E 7 C.H.a JXJXJXJXJXJXJXJXJX",
"JXJXJXJXJXg {.W.! ( d.d.f.f.f.f.`.*X+X+XOXOXoXXX.X}.{.Q.E.Q W V.R E R 7 7 H.N.SXJXJXJXJXJXJXJXJX",
"JXJXJXJXKXJ.Q.R.! ) ( ( d.d.d._ (.OXOXOXoXoX.X.X}.{.Q.!.Y.E Y.B.V.V.V.n.n.V.S.NXJXJXJXJXJXJXJXJX",
"JXJXJXJXGXG.!.R.Q ! ) ) ( ( _ (.oXXXXXXX.X.X}.[.{.Q.!.F.D.B.7 8 6 6 5 5 n.n.S.2 JXJXJXJXJXJXJXJX",
"JXJXJXJXZX~.F.E ~ ! ! ^ E.^ ^  X X X X X}.[.[.{.Q.!.F.D.B.8 t r.r 0 , > : 5 Z.J.HXJXJXJXJXJXJXJX",
"JXJXJXJXa G.D.Y.T ~ W W.Q.W.E.Q.[.[.[.[.{.{.Q.!.!.F.D.B.6 t 3Xr.r 0 , @ O : M.N.GXJXJXJXJXJXJXJX",
"JXJXJXJXg G.A.D.R.Y R.!.^.W.T.^.Q.Q.Q.Q.Q.!.!.F.F.D.A.n.0 r t w 0 , > + o = 5 M.NXJXJXJXJXJXJXJX",
"JXJXJXJXd G.A.A.V.T E Y.R.!.Y.Y.Y.!.~.~.!.F.D.D.D.A.B.5 r r 0 0 r <X0 + o . 1 M.NXJXJXJXJXJXJXJX",
"JXJXJXJXd S.A.A.A.V.E T E V.G._.g.h.x.x.t._.B.A.A.B.m.6 sX4X4 0 sXfX4X> o . ; M.NXJXJXJXJXJXJXJX",
"JXJXJXJXa S.m.m.m.m.B.B.R ) h.l.z.z.z.z.z.l.r m.m.m.b.e 3Xt , r 4Xr 3X0 o   ; N.NXJXJXJXJXJXJXJX",
"JXJXJXJXa S.Z.m.m.m.m.C.t.l.s.=.*.9.k.k.k.3.z n.m.m.b.e r.* * y <X@ <X4 o   ; b.bXJXJXJXJXJXJXJX",
"JXJXJXJXNXS.Z.m.m.M./ x.l.a.a.A Z *.k.k.6.V v b.b.b.b.q l.l.>.#.$.y.D @ o   - 1 SXJXJXJXJXJXJXJX",
"JXJXJXJXGXN.S.m.M.r.l.0.=.s.A Z m | 9.k.| l 6 b.b.b.1 z >.>.O.X.} { N & o   - 2 HXJXJXJXJXJXJXJX",
"JXJXJXJXKXs S.M.r.k.9.*.Z Z Z m m @.9.0.N 3 1 b.v.1 ; * [ { { [ C M k @ o   = u JXJXJXJXJXJXJXJX",
"JXJXJXJXJXZXS./ l.8.8.6.m j j m | 7.9.9.$., 1 5 6 6 O 0 u.N M M M G D + + . = u JXJXJXJXJXJXJXJX",
"JXJXJXJXJXSX9 x.l.t._.e.*.| [ #.7.9.9.9.0.i.e.i.l.i.v 1XhX5Xp.p.7X6X6X4 + + . - SXJXJXJXJXJXJXJX",
"JXJXJXJXJXKXJ x.,X;X$X|.e.7.8.8.9.9.9.8.6.&.&.4.7.7.3.a.jXjXdXaXdXhXdXr + , + . u JXJXJXJXJXJXJX",
"JXJXJXJXJXBXq._.%X$X$XP.r.7.7.7.7.7.7.&.N l k ] 4.4.4.| tXxXxXxXxXjXjX<X+ , , o - SXJXJXJXJXJXJX",
"JXJXJXJXJXH i.).|.|.|.D.y.4.4.4.4.4.3.N h < ; w 3.2.5.} a.xXxXxXxXjXjX6X, @ 4 + = u JXJXJXJXJXJX",
"JXJXJXJXKXc.*.C.F.F.A.e *.5.4.4.4.4.2.l : 1 1 F 2.2.,.{ u.jXxXxXxXjXhXaXt o , @ . 2 KXJXJXJXJXJX",
"JXJXJXJXSX] <.%.t e y.#.,.2.2.2.2.2.2.z : : y *.,.,.+.V u.jXxXxXjXjXfXaX1X+ @ @ o = bXJXJXJXJXJX",
"JXJXJXJXbX#.<.<.<.1.w.;.1.,.,.,.>.@.@.@.$.%.>.>.>.<.o.C p.jXjXjXjXhXdXwX4X,   + o . NXJXJXJXJXJX",
"JXJXJXJXSX#.O.<.w.:.:.-.' 1.>.&.l.@.} o.>.>.>.<.<.+.[ N 7XhXjXhXhXdXaX6X3X3 X + o   u JXJXJXJXJX",
"JXJXJXJXLX] O.O.-.;.-.U P  .O.6.0.O.} { +.<.<.<.+.} M z 6XdXfXdXdXtXa.s.$.* &   .   X SXJXJXJXJX",
"JXJXJXJXKXH X. .P P P P L  .o.O.X...{ V O.+.+.+.o.M n y.6XaXdXaX5X*.@.+.X.#.| % X     NXJXJXJXJX",
"JXJXJXJXJXVX..o.K L L I ` X.} } } { V V O.O.O...N b F 2X6X6X6X6Xp.o.O.O.X...{ k $ # # bXJXJXJXJX",
"JXJXJXJXJXHXc ..] K ' ` ..O.} V C C V ..O.O.} M b k 3 U.3X4X4X4Xp.o.X.X...} [ M % bXKXJXJXJXJXJX",
"JXJXJXJXJXJXBXB } } ..X.X.X.X.} { } ..X...[ M b b b % 3 D 2X1X1X2X| ....} { V B u KXJXJXJXJXJXJX",
"JXJXJXJXJXJXJXNXB { ....X.X.X.X.X.X.} [ M b x l M M b % $ 3 w w q k } } { V M p HXJXJXJXJXJXJXJX",
"JXJXJXJXJXJXJXJXbXx B V [ { { { [ C M b x NXHXbXH x i bXbXNXu # # u S [ V b i KXJXJXJXJXJXJXJXJX",
"JXJXJXJXJXJXJXJXJXKXbXp x c l l c x p bXHXJXJXJXKXKXJXJXJXJXJXKXKXJXbXH p bXJXJXJXJXJXJXJXJXJXJX",
"JXJXJXJXJXJXJXJXJXJXJXJXKXHXSXSXHXKXJXJXJXJXJXJXJXJXJXJXJXJXJXJXJXJXJXJXJXJXJXJXJXJXJXJXJXJXJXJX",
"JXJXJXJXJXJXJXJXJXJXJXJXJXJXJXJXJXJXJXJXJXJXJXJXJXJXJXJXJXJXJXJXJXJXJXJXJXJXJXJXJXJXJXJXJXJXJXJX",
"JXJXJXJXJXJXJXJXJXJXJXJXJXJXJXJXJXJXJXJXJXJXJXJXJXJXJXJXJXJXJXJXJXJXJXJXJXJXJXJXJXJXJXJXJXJXJXJX",
"JXJXJXJXJXJXJXJXJXJXJXJXJXJXJXJXJXJXJXJXJXJXJXJXJXJXJXJXJXJXJXJXJXJXJXJXJXJXJXJXJXJXJXJXJXJXJXJX"
};
